<svg xmlns="http://www.w3.org/2000/svg" width="96" height="96" fill="none" xmlns:v="https://vecta.io/nano"><circle cx="48" cy="48" r="48" fill="#fcb72b"/><path fill-rule="evenodd" d="M64.171 46H66c.368 0 .667-.298.667-.667V40c0-.368-.299-.667-.667-.667h-6.255l-1.079-2.157v-2.509c0-.368-.298-.667-.667-.667h-4c-.368 0-.667.298-.667.667v2.667c0 .368.298.667.667.667h3.588l1.079 2.157V44a2 2 0 1 0-4 0v-1.333c0-.368-.298-.667-.667-.667h-5.251l-2.082-.521V30.667C46.667 29.194 45.473 28 44 28h-2.667c-1.473 0-2.667 1.194-2.667 2.667V38h-3.333a2 2 0 0 0-2 2v2h-4.667c-.27 0-.513.163-.616.412s-.046.536.144.726l1.529 1.529-1.529 1.529c-.191.191-.248.477-.144.726s.346.412.616.412h6.667a2 2 0 0 0 2-2v-2h1.333V50h-2c-2.318.003-4.282 1.706-4.613 4H30c-.368 0-.667.298-.667.667v2.667c0 .368.298.667.667.667h2v1.333h-3.333c-.368 0-.667.298-.667.667v2.667c0 .368.299.667.667.667H36A4.67 4.67 0 0 0 40.667 68a4.67 4.67 0 0 0 4.667-4.667h12A4.67 4.67 0 0 0 62 68a4.67 4.67 0 0 0 4.667-4.667h.667c.203 0 .396-.092.522-.252s.174-.367.128-.565L64.171 46zm-9.505-2a2 2 0 1 0 4 0v14h-2v-.667a2 2 0 0 0-2-2V48c0-.368-.298-.667-.667-.667h-7.333v-1.813l1.838.459c.053.013.107.02.162.02H54c.368 0 .667-.298.667-.667V44zm2.667-7.333h-2.667v-1.333h2.667v1.333zM32 62v-1.333h-2.667V62H32zm0-5.333h-1.333v-1.333H32v1.333zm33.333-16H64v4h1.333v-4zm-5.333 0h2.667v4H60v-4zm-4.667 16.667c0-.368-.298-.667-.667-.667H52V58h3.333v-.667zm-6.829-14.02c.053.013.107.02.162.02h4.667v1.333h-4.585L44 43.479v-1.292l4.505 1.126zm-7.171-13.98c-.736 0-1.333.597-1.333 1.333v2.667h2V32c0-.368.298-.667.667-.667h2.667v-.667c0-.736-.597-1.333-1.333-1.333h-2.667zM40 34.667h2.667c.368 0 .667-.298.667-.667v-1.333h2v1.504L40 35.771v-1.104zm5.333 4v-3.104L40 37.163v1.504h5.333zm0 1.333v1.146l-1.838-.459c-.199-.05-.41-.005-.572.121s-.257.32-.257.526V44c0 .306.208.572.505.647l2.162.541v2.146H40V40h5.333zm8 15.333v-6.667H40V50h11.333c.368 0 .667.298.667.667v4.667h1.333zM36 45.333c0 .368-.298.667-.667.667h-5.057l.862-.862c.26-.26.26-.682 0-.943l-.862-.862H36v2zM34.667 40v2h4v-2.667h-3.333c-.368 0-.667.298-.667.667zm6 26.667a3.34 3.34 0 0 1-3.333-3.333h1.333a2 2 0 1 0 4 0H44a3.34 3.34 0 0 1-3.333 3.333zm0-2.667c.368 0 .667-.298.667-.667H40c0 .368.298.667.667.667zm4.667-2H36v-6.667c0-.368.298-.667.667-.667h8c.368 0 .667.298.667.667V62zm1.333 0H48v-7.333a3.34 3.34 0 0 0-3.333-3.333h-8a3.34 3.34 0 0 0-3.333 3.333V62h1.333v-6.667a2 2 0 0 1 2-2h8a2 2 0 0 1 2 2V62zm1.26-10.667h2.74V58h-1.333v-3.333a4.65 4.65 0 0 0-1.407-3.333zM62 66.667a3.34 3.34 0 0 1-3.333-3.333H60a2 2 0 1 0 4 0h1.333A3.34 3.34 0 0 1 62 66.667zM62 64c.368 0 .667-.298.667-.667h-1.333c0 .368.298.667.667.667zm-2-2v-4.667h1.333V56H60V46h2.8l3.692 16H60zm-10.667 0h9.333v-2.667h-9.333V62zM64 56h-1.333v1.333H64V56zm-26.667 0h1.333v1.333h-1.333V56zm4 0H40v1.333h1.333V56zm1.333 0H44v1.333h-1.333V56zm14-12.667c.368 0 .667.298.667.667s-.298.667-.667.667S56 44.368 56 44s.298-.667.667-.667zM28 32.667h8.667V34H28v-1.333zm9.333 2.667h-8v1.333h8v-1.333z" fill="#495567"/></svg>