<svg xmlns="http://www.w3.org/2000/svg" width="76" height="20" fill="none" xmlns:v="https://vecta.io/nano"><path fill-rule="evenodd" d="M74.998 16.247v3.361h-5.882c-.635 0-1.153-.205-1.555-.616s-.602-.934-.602-1.569V9.076h-4.118V5.714h4.118V0h3.529v5.714h5.014v3.361h-5.014v6.331c0 .56.252.84.756.84h3.754zM6.387 20c1.83 0 3.249-.411 4.258-1.233s1.513-1.923 1.513-3.305v-.168c0-1.251-.448-2.227-1.345-2.927s-2.054-1.125-3.473-1.274c-1.232-.131-2.082-.294-2.549-.49s-.7-.518-.7-.966c0-.317.149-.584.448-.798s.747-.322 1.345-.322c.654 0 1.186.145 1.597.434s.7.686.868 1.191l3.193-1.289c-.149-.392-.364-.798-.644-1.218s-.644-.803-1.092-1.148-.994-.626-1.639-.84-1.405-.322-2.283-.322c-.672 0-1.326.093-1.961.28s-1.195.462-1.681.826-.878.808-1.176 1.331S.616 8.889.616 9.58v.168c0 1.326.462 2.33 1.387 3.011s2.171 1.088 3.74 1.219c.579.056 1.06.131 1.443.224s.686.21.91.35.378.29.462.448a1.09 1.09 0 0 1 .126.518c0 .317-.163.612-.49.882s-.929.406-1.807.406c-.99 0-1.723-.224-2.199-.672s-.789-.971-.938-1.569L0 15.63a5.42 5.42 0 0 0 .546 1.499c.271.513.658.98 1.162 1.4s1.139.77 1.905 1.05 1.69.42 2.773.42zm15.724 0c1.979 0 3.562-.504 4.748-1.513s1.938-2.334 2.255-3.978l-3.473-.868c-.168.915-.537 1.643-1.107 2.185s-1.396.812-2.479.812c-.504 0-.98-.079-1.428-.238s-.84-.397-1.177-.714a3.38 3.38 0 0 1-.798-1.19c-.196-.476-.294-1.022-.294-1.639v-.168c0-.616.098-1.172.294-1.667s.462-.915.798-1.26.728-.612 1.177-.798.924-.28 1.428-.28c1.083 0 1.924.299 2.521.896s.952 1.307 1.064 2.129l3.473-.896c-.317-1.643-1.078-2.969-2.283-3.978s-2.778-1.513-4.72-1.513c-1.008 0-1.956.168-2.843.504a6.81 6.81 0 0 0-2.325 1.457c-.663.635-1.181 1.401-1.555 2.297s-.56 1.905-.56 3.025v.336c0 1.12.187 2.12.56 2.997s.887 1.615 1.541 2.213 1.424 1.055 2.311 1.373 1.844.476 2.871.476zm18.455-.476a7.89 7.89 0 0 1-2.731.476 7.89 7.89 0 0 1-2.731-.476 7 7 0 0 1-2.311-1.387 6.53 6.53 0 0 1-1.597-2.241c-.392-.887-.588-1.909-.588-3.067v-.336c0-1.139.196-2.152.588-3.039s.924-1.639 1.597-2.255 1.443-1.083 2.311-1.401a7.89 7.89 0 0 1 2.731-.476 7.89 7.89 0 0 1 2.731.476 6.88 6.88 0 0 1 2.311 1.401 6.68 6.68 0 0 1 1.597 2.255c.392.887.588 1.9.588 3.039v.336c0 1.158-.196 2.18-.588 3.067s-.924 1.634-1.597 2.241a7 7 0 0 1-2.311 1.387zm-2.731-2.885c-.504 0-.98-.084-1.428-.252s-.84-.411-1.176-.728a3.44 3.44 0 0 1-.798-1.163c-.196-.457-.294-.976-.294-1.555v-.56c0-.579.098-1.097.294-1.555s.462-.845.798-1.162.728-.56 1.176-.728.924-.252 1.428-.252.98.084 1.429.252.84.411 1.176.728a3.44 3.44 0 0 1 .798 1.162c.196.457.294.976.294 1.555v.56c0 .579-.098 1.097-.294 1.555a3.44 3.44 0 0 1-.798 1.163c-.336.317-.728.56-1.176.728s-.924.252-1.429.252zm18.624 2.885a7.89 7.89 0 0 1-2.731.476 7.89 7.89 0 0 1-2.731-.476c-.868-.317-1.639-.78-2.311-1.387s-1.204-1.354-1.597-2.241-.588-1.909-.588-3.067v-.336c0-1.139.196-2.152.588-3.039s.924-1.639 1.597-2.255a6.88 6.88 0 0 1 2.311-1.401 7.89 7.89 0 0 1 2.731-.476 7.89 7.89 0 0 1 2.731.476c.868.317 1.639.784 2.311 1.401s1.204 1.368 1.597 2.255.588 1.9.588 3.039v.336c0 1.158-.196 2.18-.588 3.067a6.53 6.53 0 0 1-1.597 2.241 7 7 0 0 1-2.311 1.387zm-2.731-2.885c-.504 0-.98-.084-1.429-.252s-.84-.411-1.177-.728a3.44 3.44 0 0 1-.798-1.163c-.196-.457-.294-.976-.294-1.555v-.56c0-.579.098-1.097.294-1.555a3.44 3.44 0 0 1 .798-1.162c.336-.317.728-.56 1.177-.728s.924-.252 1.429-.252.98.084 1.429.252.84.411 1.176.728a3.44 3.44 0 0 1 .798 1.162c.196.457.294.976.294 1.555v.56c0 .579-.098 1.097-.294 1.555a3.44 3.44 0 0 1-.798 1.163c-.336.317-.728.56-1.176.728s-.924.252-1.429.252z" fill="#495567"/></svg>