<svg xmlns="http://www.w3.org/2000/svg" width="96" height="96" fill="none" xmlns:v="https://vecta.io/nano"><circle cx="48" cy="48" r="48" fill="#fcb72b"/><path d="M45.07 62.301c-.218 0-.431.088-.585.242s-.242.367-.242.585.089.431.242.585.367.242.585.242.431-.088.585-.242a.83.83 0 0 0 .242-.585c0-.217-.089-.431-.242-.585s-.367-.242-.585-.242z" fill="#000"/><path fill-rule="evenodd" d="M61.539 48.419l-1.927-8.706c.52-.07.979-.335 1.301-.718.381.238.83.376 1.311.376h1.654c.457 0 .827-.37.827-.827v-3.307c0-.457-.37-.827-.827-.827h-1.654c-.495 0-.957.147-1.345.398a2.06 2.06 0 0 0-1.546-.699h-4.881a2.07 2.07 0 0 0-1.926 1.323h-1.96c-1.185 0-2.15.965-2.15 2.15s.965 2.15 2.15 2.15h4.256v1.666c0 .457.37.827.827.827s.827-.37.827-.827v-1.666h1.447l2.076 9.378-3.928 6.997a2.43 2.43 0 0 1-2.113 1.235h-9.806a6.96 6.96 0 0 0-6.897-6.122 6.88 6.88 0 0 0-4.287 1.48l-.005.004c-1.469 1.155-2.392 2.813-2.607 4.637h-1.698c.108-5.945 4.977-10.747 10.946-10.747h5.866a.84.84 0 0 1 .84.84v7.426c0 .457.37.827.827.827h4.4c1.795 0 3.449-.976 4.317-2.547.401-.727.614-1.55.615-2.379l.004-2.747c.001-.457-.369-.827-.826-.828h-.001c-.456 0-.826.369-.827.826l-.004 2.748c0 .552-.142 1.099-.409 1.582a3.28 3.28 0 0 1-2.869 1.693h-3.573v-6.599a2.48 2.48 0 0 0-.294-1.172c.743-.429 1.244-1.232 1.244-2.149 0-1.368-1.113-2.481-2.481-2.481h-3.018a2.47 2.47 0 0 0-.827.142v-7.253c0-1.368-1.113-2.481-2.481-2.481h-5.334c-3.867 0-7.083 2.839-7.674 6.542a.83.83 0 0 0-.038.249c-.039.331-.059.653-.059.98v4.301c0 1.242.918 2.274 2.11 2.453l1.831 1.831C28.516 50.696 27 53.946 27 57.544v.625c0 .457.37.827.827.827h4.647a.85.85 0 0 0-.016.165c0 1.2.444 2.298 1.175 3.139h-5.806c-.457 0-.827.37-.827.827s.37.827.827.827h9.331l.028.001c.023.001.045.002.068.002 2.644 0 4.796-2.151 4.796-4.796a.84.84 0 0 0-.017-.165h11.924c1.302 0 2.519-.624 3.281-1.656h1.047a4.79 4.79 0 0 0-.36 1.822c0 1.2.444 2.298 1.175 3.139H48.377c-.457 0-.827.37-.827.827s.37.827.827.827h14.248l.096.003c2.644 0 4.796-2.151 4.796-4.796a4.79 4.79 0 0 0-.361-1.822h1.353c.457 0 .827-.37.827-.827 0-4.365-3.471-7.934-7.797-8.094zm-18.126-5.132h3.018a.83.83 0 0 1 .827.827.83.83 0 0 1-.827.827h-3.018a.83.83 0 0 1-.827-.827.83.83 0 0 1 .827-.827zm-14.757-3.576h0l-.002.102v4.301a.83.83 0 0 0 .827.827h.001 10.624a.83.83 0 0 0 .827-.827v-9.592a.83.83 0 0 0-.827-.827h-5.334c-2.744 0-5.072 1.817-5.845 4.311h8.779c.457 0 .827.37.827.827s-.37.827-.827.827h-9.048l-.002.051zm2.821 6.884h1.892c-.397.227-.781.475-1.15.742l-.742-.742zm5.808 15.708c1.718-.017 3.11-1.419 3.11-3.141a.85.85 0 0 1 .017-.165h-6.317a.84.84 0 0 1 .017.165c0 1.701 1.358 3.089 3.047 3.139h.095l.032.002zm-5.263-4.96a5.26 5.26 0 0 1 1.96-3.337c.946-.741 2.074-1.13 3.27-1.13 2.638 0 4.832 1.94 5.23 4.468H32.023zm31.029-21.278h-.827a.83.83 0 0 0-.827.827.83.83 0 0 0 .827.827h.827v-1.654zM50.07 37.583c0-.274.222-.496.496-.496h1.822v.581c0 .141.014.278.041.411h-1.863c-.274 0-.496-.222-.496-.496zm4.382.496h1.197 3.684a.41.41 0 0 0 .411-.411v-1.494a.41.41 0 0 0-.411-.411h-4.881a.41.41 0 0 0-.411.411v1.494a.41.41 0 0 0 .411.411zm11.411 21.083c0 1.722-1.392 3.124-3.11 3.141l-.032-.002h-.095c-1.689-.051-3.047-1.439-3.047-3.14 0-.657.205-1.292.582-1.822h5.12c.377.53.582 1.165.582 1.822zm-4.507-9.091l-3.153 5.616h9.426c-.402-3.126-3.053-5.557-6.273-5.616z" fill="#495567"/><path d="M55.649 45.533c.457 0 .827-.37.827-.827s-.37-.827-.827-.827h-.003c-.457 0-.826.37-.826.827a.83.83 0 0 0 .828.827z" fill="#000"/></svg>